# xmcd
# 
# Track frame offsets:
#     150
#     13603
#     27667
#     40331
#     59390
#     72274
#     88672
#     102973
#     117462
#     131238
#     147071
#     164323
#     178429
#     194078
# 
# Disc length: 2765
# 
# Revision: 19
# Processed by: cddbd v1.5.2PL0 Copyright (c) Steve Scherf et al.
# Submitted via: fre:ac v1.0.31
# 
DISCID=d60acb0e
DTITLE=Rod Stewart - The Great American Songbook Vol.02 - As Time Goes By
DYEAR=2003
DGENRE=Jazz
TTITLE0=Time After Time
TTITLE1=I'm in the Mood for Love
TTITLE2=Don't Get Around Much Anymore
TTITLE3=Bewitched, Bothered and Bewildered (duet with Cher)
TTITLE4='Till There Was You
TTITLE5=Until the Real Thing Comes Along
TTITLE6=Where or When
TTITLE7=Smile
TTITLE8=My Heart Stood Still
TTITLE9=Someone to Watch Over Me
TTITLE10=As Time Goes By (duet with Queen Latifah)
TTITLE11=I Only Have Eyes for You
TTITLE12=Crazy She Calls Me
TTITLE13=Our Love is Here to Stay
EXTD=YEAR: 2003
EXTT0=
EXTT1=
EXTT2=
EXTT3=
EXTT4=
EXTT5=
EXTT6=
EXTT7=
EXTT8=
EXTT9=
EXTT10=
EXTT11=
EXTT12=
EXTT13=
PLAYORDER=
